<?xml version="1.0" encoding="utf-8"?>
<!-- Generator: Adobe Illustrator 18.0.0, SVG Export Plug-In . SVG Version: 6.00 Build 0)  -->
<!DOCTYPE svg PUBLIC "-//W3C//DTD SVG 1.1//EN" "http://www.w3.org/Graphics/SVG/1.1/DTD/svg11.dtd">
<svg version="1.1" id="Layer_1" xmlns="http://www.w3.org/2000/svg" xmlns:xlink="http://www.w3.org/1999/xlink" x="0px" y="0px"
	 viewBox="0 0 48 48" enable-background="new 0 0 48 48" xml:space="preserve">
<g>
	<g>
		<g>
			<path d="M20.3,21.1L20.3,21.1c-3.3,0-6.4-1.3-8.8-3.5C9.2,15.3,7.9,12.2,7.9,9c0-3.2,1.2-6.2,3.5-8.5C11.6,0.2,11.9,0,12.3,0
				c0,0,0,0,0,0c0,0,0,0,0,0c0,0,0,0,0,0l0,0c0,0,0,0,0,0c0,0,0,0,0,0c0,0,0,0,0,0c0,0,0,0,0,0h0c0.3,0,0.5,0.1,0.7,0.3L29,16
				c0.2,0.2,0.3,0.4,0.3,0.7c0,0.3-0.1,0.6-0.3,0.8C26.7,19.8,23.6,21.1,20.3,21.1z M12.3,2.4C10.8,4.3,9.9,6.6,9.9,9
				c0,2.7,1.1,5.2,3,7.1c2,1.9,4.6,3,7.4,3c2.4,0,4.8-0.8,6.6-2.3L12.3,2.4z"/>
			<path d="M17.3,29.5H1c-0.4,0-0.7-0.2-0.9-0.5c-0.2-0.3-0.1-0.7,0.1-1l8.1-11.1c0.2-0.3,0.5-0.4,0.8-0.4c0.3,0,0.6,0.1,0.8,0.4
				l8.2,11.1c0.2,0.3,0.3,0.7,0.1,1C18,29.3,17.7,29.5,17.3,29.5z M3,27.5h12.4l-6.2-8.4L3,27.5z"/>
			<path d="M20.6,9.6c-0.3,0-0.5-0.1-0.7-0.3c-0.4-0.4-0.4-1,0-1.4l7.7-7.6c0.4-0.4,1-0.4,1.4,0c0.4,0.4,0.4,1,0,1.4l-7.7,7.6
				C21.1,9.5,20.9,9.6,20.6,9.6z"/>
		</g>
		<path d="M44.7,43.8h-17c-1.9,0-3.3-1.4-3.3-3.3V27c0-1.9,1.4-3.3,3.3-3.3h17c1.9,0,3.3,1.4,3.3,3.3v13.5
			C48,42.4,46.6,43.8,44.7,43.8z M27.7,25.7c-0.8,0-1.3,0.5-1.3,1.3v13.5c0,0.8,0.5,1.3,1.3,1.3h17c0.8,0,1.3-0.5,1.3-1.3V27
			c0-0.8-0.5-1.3-1.3-1.3H27.7z"/>
		<path d="M36.2,48c-0.6,0-1-0.4-1-1v-4.1c0-0.6,0.4-1,1-1s1,0.4,1,1V47C37.2,47.6,36.8,48,36.2,48z"/>
		<path d="M43.9,48H28.5c-0.6,0-1-0.4-1-1s0.4-1,1-1h15.4c0.6,0,1,0.4,1,1S44.5,48,43.9,48z"/>
	</g>
	<path d="M20.6,39.3H9.8c-0.6,0-1-0.4-1-1v-6.7c0-0.6,0.4-1,1-1s1,0.4,1,1v5.7h9.8c0.6,0,1,0.4,1,1S21.2,39.3,20.6,39.3z"/>
	<path d="M38.3,22c-0.6,0-1-0.4-1-1V10.8h-11c-0.6,0-1-0.4-1-1s0.4-1,1-1h12c0.6,0,1,0.4,1,1V21C39.3,21.6,38.9,22,38.3,22z"/>
</g>
</svg>
