<?xml version="1.0" encoding="utf-8"?>
<!-- Generator: Adobe Illustrator 16.0.0, SVG Export Plug-In . SVG Version: 6.00 Build 0)  -->
<!DOCTYPE svg PUBLIC "-//W3C//DTD SVG 1.1//EN" "http://www.w3.org/Graphics/SVG/1.1/DTD/svg11.dtd">
<svg version="1.1" id="Layer_1" xmlns="http://www.w3.org/2000/svg" xmlns:xlink="http://www.w3.org/1999/xlink" x="0px" y="0px"
	 width="48px" height="48px" viewBox="0 0 48 48" enable-background="new 0 0 48 48" xml:space="preserve">
<g>
	<path fill="none" stroke="#000000" stroke-width="3" stroke-linecap="round" stroke-linejoin="round" stroke-miterlimit="10" d="
		M39.24,21.381c0-4.185-3.392-7.577-7.577-7.577c-1.229,0-2.386,0.3-3.411,0.819c-1.419-4.422-5.561-7.625-10.454-7.625
		c-4.61,0-8.55,2.845-10.177,6.873C3.889,14.342,1,17.521,1,21.381c0,3.947,3.017,7.183,6.869,7.541v0.035h23.795l0,0
		C35.849,28.957,39.24,25.566,39.24,21.381z"/>
	<path fill="none" stroke="#000000" stroke-width="3" stroke-linecap="round" stroke-linejoin="round" stroke-miterlimit="10" d="
		M39.311,25.148c1.586-0.148,3.703,1.09,5.02,1.867c1.728,1.021,1.907,3.016,2.427,4.875c0.629,2.248,0.021,4.031-1.627,5.707
		c-1.757,1.783-4.487,1.176-6.774,1.176H23.08"/>
	
		<rect x="17.18" y="36.49" fill="none" stroke="#000000" stroke-width="3" stroke-linecap="round" stroke-linejoin="round" stroke-miterlimit="10" width="5.827" height="4.512"/>
</g>
</svg>
