<?xml version="1.0" encoding="utf-8"?>
<!-- Generator: Adobe Illustrator 18.0.0, SVG Export Plug-In . SVG Version: 6.00 Build 0)  -->
<!DOCTYPE svg PUBLIC "-//W3C//DTD SVG 1.1//EN" "http://www.w3.org/Graphics/SVG/1.1/DTD/svg11.dtd">
<svg version="1.1" id="Layer_1" xmlns="http://www.w3.org/2000/svg" xmlns:xlink="http://www.w3.org/1999/xlink" x="0px" y="0px"
	 viewBox="0 0 48 48" enable-background="new 0 0 48 48" xml:space="preserve">
<g>
	<polyline fill="none" stroke="#000000" stroke-width="3" stroke-linejoin="round" stroke-miterlimit="10" points="37.9,47 24,16.3 
		10.1,47 	"/>
	<g>
		<polyline fill="none" stroke="#000000" stroke-width="3" stroke-linejoin="round" stroke-miterlimit="10" points="28.4,26.4 
			15.3,35.8 37.3,45.9 		"/>
		<polyline fill="none" stroke="#000000" stroke-width="3" stroke-linejoin="round" stroke-miterlimit="10" points="19.6,26.4 
			32.7,35.8 10.7,45.9 		"/>
	</g>
	<circle fill="none" stroke="#000000" stroke-width="3" stroke-miterlimit="10" cx="24" cy="13" r="3.1"/>
	<path fill="none" stroke="#000000" stroke-width="3" stroke-miterlimit="10" d="M29.3,7.6c2.9,2.9,2.9,7.7,0,10.6"/>
	<path fill="none" stroke="#000000" stroke-width="3" stroke-miterlimit="10" d="M18.7,18.3c-2.9-2.9-2.9-7.7,0-10.6"/>
	<path fill="none" stroke="#000000" stroke-width="3" stroke-miterlimit="10" d="M32.5,4.4c4.7,4.7,4.7,12.4,0,17.1"/>
	<path fill="none" stroke="#000000" stroke-width="3" stroke-miterlimit="10" d="M15.5,21.5c-4.7-4.7-4.7-12.4,0-17.1"/>
	<path fill="none" stroke="#000000" stroke-width="3" stroke-miterlimit="10" d="M36,1c6.6,6.6,6.6,17.3,0,23.9"/>
	<path fill="none" stroke="#000000" stroke-width="3" stroke-miterlimit="10" d="M12,24.9C5.4,18.3,5.4,7.6,12,1"/>
</g>
</svg>
