<?xml version="1.0" encoding="utf-8"?>
<!-- Generator: Adobe Illustrator 18.0.0, SVG Export Plug-In . SVG Version: 6.00 Build 0)  -->
<!DOCTYPE svg PUBLIC "-//W3C//DTD SVG 1.1//EN" "http://www.w3.org/Graphics/SVG/1.1/DTD/svg11.dtd">
<svg version="1.1" id="Layer_1" xmlns="http://www.w3.org/2000/svg" xmlns:xlink="http://www.w3.org/1999/xlink" x="0px" y="0px"
	 viewBox="0 0 48 48" enable-background="new 0 0 48 48" xml:space="preserve">
<g>
	<path d="M24.1,47.9c-6.8,0-13.4-2.9-18.1-8.3l1.5-1.3c6.7,7.7,17.7,9.8,26.8,5.1c9-4.6,13.6-14.7,11.2-24.6l1.9-0.5
		c2.6,10.8-2.4,21.8-12.2,26.8C31.6,47,27.8,47.9,24.1,47.9z"/>
	<path d="M0.5,29.1C-1.7,18.5,3.4,7.7,12.9,2.7c9.4-4.9,21.1-3,28.5,4.7L40,8.8C33.2,1.7,22.5,0,13.9,4.5C5.1,9.1,0.4,19,2.5,28.7
		L0.5,29.1z"/>
	<polygon points="42.2,10.1 33.4,10.1 33.4,8.1 40.2,8.1 40.6,1 42.6,1 	"/>
	<polygon points="6.1,46.1 4.1,45.9 4.7,36.9 13.3,36.8 13.3,38.8 6.5,38.9 	"/>
</g>
</svg>
