<?xml version="1.0" encoding="utf-8"?>
<!-- Generator: Adobe Illustrator 18.0.0, SVG Export Plug-In . SVG Version: 6.00 Build 0)  -->
<!DOCTYPE svg PUBLIC "-//W3C//DTD SVG 1.1//EN" "http://www.w3.org/Graphics/SVG/1.1/DTD/svg11.dtd">
<svg version="1.1" id="Layer_1" xmlns="http://www.w3.org/2000/svg" xmlns:xlink="http://www.w3.org/1999/xlink" x="0px" y="0px"
	 viewBox="0 0 48 48" enable-background="new 0 0 48 48" xml:space="preserve">
<g>
	<path d="M12.1,48c-3.2,0-6.3-1.2-8.6-3.5c-4.7-4.7-4.7-12.3,0-17.1l12.3-12.3c2.3-2.3,5.3-3.5,8.5-3.5c3.2,0,6.3,1.2,8.6,3.5
		c4.7,4.7,4.7,12.3,0,17.1L20.6,44.5C18.3,46.8,15.3,48,12.1,48z M24.3,13.6c-2.7,0-5.2,1-7.1,2.9L4.9,28.8c-3.9,4-3.9,10.4,0,14.3
		C6.8,45,9.4,46,12.1,46c2.7,0,5.2-1,7.1-2.9l12.3-12.3c3.9-4,3.9-10.4,0-14.3C29.6,14.6,27,13.6,24.3,13.6z"/>
	<g>
		<rect x="18.8" y="23.1" transform="matrix(0.7071 0.7071 -0.7071 0.7071 24.0218 -9.8909)" width="10.3" height="2"/>
		<rect x="22.9" y="18.9" transform="matrix(0.7071 0.7071 -0.7071 0.7071 24.0207 -9.8909)" width="2" height="10.3"/>
	</g>
	<g>
		<rect x="12.4" y="33.6" transform="matrix(0.7072 0.707 -0.707 0.7072 28.3849 0.6562)" width="2" height="2"/>
		<rect x="7.7" y="38.3" transform="matrix(0.707 0.7072 -0.7072 0.707 30.3432 5.3626)" width="2" height="2"/>
		<g>
			<rect x="12.6" y="38.7" transform="matrix(0.707 0.7072 -0.7072 0.707 32.0622 2.0146)" width="2" height="2"/>
			<rect x="7.3" y="33.4" transform="matrix(0.7072 0.707 -0.707 0.7072 26.7502 4.2033)" width="2" height="2"/>
		</g>
	</g>
	<path d="M41.1,21.8h-2c0-7.1-5.8-12.9-12.9-12.9v-2C34.4,6.9,41.1,13.6,41.1,21.8z"/>
	<path d="M48,21.8h-2C46,10.9,37.1,2,26.2,2V0C38.2,0,48,9.8,48,21.8z"/>
</g>
</svg>
