<?xml version="1.0" encoding="utf-8"?>
<!-- Generator: Adobe Illustrator 18.0.0, SVG Export Plug-In . SVG Version: 6.00 Build 0)  -->
<!DOCTYPE svg PUBLIC "-//W3C//DTD SVG 1.1//EN" "http://www.w3.org/Graphics/SVG/1.1/DTD/svg11.dtd">
<svg version="1.1" id="Layer_1" xmlns="http://www.w3.org/2000/svg" xmlns:xlink="http://www.w3.org/1999/xlink" x="0px" y="0px"
	 viewBox="0 0 48 48" enable-background="new 0 0 48 48" xml:space="preserve">
<g>
	<path d="M47,42.6H4.6c-0.6,0-1-0.4-1-1V28.3c0-0.6,0.4-1,1-1H47c0.6,0,1,0.4,1,1v13.3C48,42.2,47.6,42.6,47,42.6z M5.6,40.6H46
		V29.3H5.6V40.6z"/>
	<rect x="9.4" y="19" width="2" height="9.1"/>
	<g>
		<circle cx="10" cy="35.1" r="1.4"/>
		<circle cx="15.7" cy="35.1" r="1.4"/>
		<circle cx="21.3" cy="35.1" r="1.4"/>
	</g>
	<g>
		<circle cx="41.3" cy="35.1" r="1.4"/>
	</g>
	<g>
		<circle cx="10.3" cy="18.8" r="2"/>
	</g>
	<g>
		<path d="M3.6,13.2c-0.3,0-0.5-0.1-0.7-0.3c-0.4-0.4-0.4-1,0-1.4c2-2,4.6-3.1,7.4-3.2c2.8,0,5.6,1.1,7.6,3.1c0.4,0.4,0.4,1,0,1.4
			s-1,0.4-1.4,0c-1.7-1.7-3.9-2.5-6.2-2.6c-2.3,0-4.4,0.9-6,2.5C4.1,13.1,3.9,13.2,3.6,13.2z"/>
		<path d="M14.8,15.2c-0.3,0-0.5-0.1-0.7-0.3c-1-1-2.3-1.5-3.7-1.5s-2.7,0.5-3.7,1.5c-0.4,0.4-1,0.4-1.4,0c-0.4-0.4-0.4-1,0-1.4
			c1.3-1.4,3.2-2.1,5.1-2.1s3.8,0.7,5.1,2.1c0.4,0.4,0.4,1,0,1.4C15.3,15.1,15.1,15.2,14.8,15.2z"/>
		<path d="M19.7,11.3c-0.3,0-0.5-0.1-0.7-0.3C14.1,6.2,6.6,6.2,1.7,11c-0.4,0.4-1,0.4-1.4,0s-0.4-1,0-1.4C5.8,4,14.9,4,20.4,9.6
			c0.4,0.4,0.4,1,0,1.4C20.2,11.2,20,11.3,19.7,11.3z"/>
	</g>
</g>
</svg>
