<?xml version="1.0" encoding="utf-8"?>
<!-- Generator: Adobe Illustrator 18.0.0, SVG Export Plug-In . SVG Version: 6.00 Build 0)  -->
<!DOCTYPE svg PUBLIC "-//W3C//DTD SVG 1.1//EN" "http://www.w3.org/Graphics/SVG/1.1/DTD/svg11.dtd">
<svg version="1.1" id="Layer_1" xmlns="http://www.w3.org/2000/svg" xmlns:xlink="http://www.w3.org/1999/xlink" x="0px" y="0px"
	 viewBox="0 0 48 48" enable-background="new 0 0 48 48" xml:space="preserve">
<g>
	<path d="M42.5,48c-1.5,0-2.9-0.6-4-1.6L21.9,29.7c-2,0.9-4.2,1.3-6.3,1.3c-4.2,0-8.1-1.6-11-4.5c-6-5.9-6-15.8,0-21.9
		C7.5,1.6,11.4,0,15.5,0c4.1,0,8,1.6,11,4.6c4.5,4.5,5.8,11.5,3.2,17.3l3.9,3.9l-0.2,3.8l3.5-0.5l2.7,2.7l-0.9,3.7l2.6-1.1l0.5,3.2
		h1.8l3.8,2.2l0.1,0.3c1,2.1,0.6,4.6-1.1,6.2C45.3,47.4,43.9,48,42.5,48z M22.3,27.3l17.6,17.6c1.4,1.4,3.7,1.4,5.1,0
		c1-1,1.3-2.4,0.8-3.7L43,39.6h-3l-0.3-2.4l-4,1.7l1.7-6.5l-1.1-1.1L31.3,32l0.2-5.4l-4.3-4.3l0.3-0.6c2.6-5.2,1.5-11.6-2.5-15.6
		c-2.6-2.6-6-4-9.6-4c-3.6,0-7,1.4-9.5,4c-5.3,5.4-5.3,13.9,0,19.1c2.5,2.5,5.9,3.9,9.6,3.9c2.1,0,4.2-0.5,6.1-1.4L22.3,27.3z
		 M6.2,21.8l-0.6-1.2c-2.2-4.3-1.3-9.5,2.1-13c2.1-2.1,4.9-3.3,7.9-3.3c1.7,0,3.5,0.4,5,1.2l1.2,0.6L6.2,21.8z M15.6,6.3
		c-2.5,0-4.8,1-6.5,2.7c-2.5,2.5-3.3,6.1-2.3,9.3L18.4,6.8C17.5,6.5,16.6,6.3,15.6,6.3z"/>
</g>
</svg>
